<svg xmlns="http://www.w3.org/2000/svg" width="24" height="24" viewBox="0 0 24 24" fill="currentColor">
  <path d="M7.5 6.5C7.5 8.981 9.519 11 12 11s4.5-2.019 4.5-4.5S14.481 2 12 2 7.5 4.019 7.5 6.5zM20 12h-8l-1.502-1.502A2.499 2.499 0 0 0 8.734 9H15.5c.827 0 1.5.673 1.5 1.5 0 .827-.673 1.5-1.5 1.5H13v1h2.5c.827 0 1.5.673 1.5 1.5 0 .827-.673 1.5-1.5 1.5H13v1h7c.552 0 1-.448 1-1v-3c0-.552-.448-1-1-1z"/>
  <path d="M12 13c-3.309 0-6 2.691-6 6 0 1.657 1.343 3 3 3h6c1.657 0 3-1.343 3-3 0-3.309-2.691-6-6-6zm-2 7c-.552 0-1-.448-1-1s.448-1 1-1 1 .448 1 1-.448 1-1 1zm4 0c-.552 0-1-.448-1-1s.448-1 1-1 1 .448 1 1-.448 1-1 1z"/>
</svg>